<svg xmlns="http://www.w3.org/2000/svg" width="76" height="36" viewBox="0 0 76 36">
    <defs>
        <linearGradient id="zts4p5grpa" x1="-.15%" x2="100.588%" y1="50.98%" y2="49.662%">
            <stop offset="0%" stop-color="#5DA9DD"/>
            <stop offset=".404%" stop-color="#5DA8DC"/>
            <stop offset="23.44%" stop-color="#3B83C1"/>
            <stop offset="45.56%" stop-color="#1C6CAF"/>
            <stop offset="66.26%" stop-color="#005DA4"/>
            <stop offset="84.99%" stop-color="#00559E"/>
            <stop offset="100%" stop-color="#00529C"/>
        </linearGradient>
        <linearGradient id="excyd7q33b" x1=".203%" x2="100%" y1="50.497%" y2="49.099%">
            <stop offset="0%" stop-color="#5DA9DD"/>
            <stop offset=".404%" stop-color="#5DA8DC"/>
            <stop offset="23.44%" stop-color="#3B83C1"/>
            <stop offset="45.56%" stop-color="#1C6CAF"/>
            <stop offset="66.26%" stop-color="#005DA4"/>
            <stop offset="84.99%" stop-color="#00559E"/>
            <stop offset="100%" stop-color="#00529C"/>
        </linearGradient>
        <linearGradient id="sx5ryosfxc" x1="-.674%" x2="100.821%" y1="51.13%" y2="49.252%">
            <stop offset="0%" stop-color="#5DA9DD"/>
            <stop offset=".404%" stop-color="#5DA8DC"/>
            <stop offset="23.44%" stop-color="#3B83C1"/>
            <stop offset="45.56%" stop-color="#1C6CAF"/>
            <stop offset="66.26%" stop-color="#005DA4"/>
            <stop offset="84.99%" stop-color="#00559E"/>
            <stop offset="100%" stop-color="#00529C"/>
        </linearGradient>
        <linearGradient id="77ih95hnvd" x1="1.02%" x2="97.33%" y1="45.861%" y2="50.844%">
            <stop offset="0%" stop-color="#75BEE9"/>
            <stop offset="12.72%" stop-color="#65ADDF"/>
            <stop offset="37.81%" stop-color="#4A93CF"/>
            <stop offset="61.45%" stop-color="#3482C4"/>
            <stop offset="82.85%" stop-color="#2378BE"/>
            <stop offset="100%" stop-color="#1B75BC"/>
        </linearGradient>
        <linearGradient id="t66w4sxk6e" x1="0%" x2="100%" y1="50%" y2="50%">
            <stop offset="0%" stop-color="#75BEE9"/>
            <stop offset="12.72%" stop-color="#65ADDF"/>
            <stop offset="37.81%" stop-color="#4A93CF"/>
            <stop offset="61.45%" stop-color="#3482C4"/>
            <stop offset="82.85%" stop-color="#2378BE"/>
            <stop offset="100%" stop-color="#1B75BC"/>
        </linearGradient>
    </defs>
    <g fill="none" fill-rule="evenodd">
        <g>
            <g>
                <g>
                    <g>
                        <g>
                            <path fill="#000F47" d="M34.368 13.447s-14.679-1.73-17.254-3.882c0 0 .247-1.483.211-1.977 0 0 15.455 3.141 21.49.918 0 .035-2.718 3.67-4.447 4.941zM24.735 18.67s-7.48-3.458-8.715-5.646c0 0 .6-1.412.74-2.4 0 0 9.669 5.117 14.15 5.188 0 0-4.693 2.682-6.175 2.859zM16.231 20.788s-1.94-3.459-2.046-4.8c0 0 1.305-1.482 1.376-1.94 0 0 2.4 5.54 7.833 5.505 0 0-5.434 1.588-7.163 1.235zM7.622 17.33s6.14-3.918 8.115-7.624c0 0-2.964 2.33-5.08 2.718l-3.035 4.905z" transform="translate(-65 -6) translate(65 6) translate(9.174)"/>
                            <path fill="url(#zts4p5grpa)" d="M16.76 10.624c-.14.705-.529 2.047-.74 2.4 2.187.529 9.88 2.611 18.419.423 1.835-1.482 3.317-3.282 4.375-4.906-5.963 2.859-10.762 2.647-14.82 2.859-4.34.035-6.28-.53-7.233-.776z" transform="translate(-65 -6) translate(65 6) translate(9.174)"/>
                            <path fill="url(#excyd7q33b)" d="M14.185 15.988c1.305.6 5.787 2.33 10.55 2.683 2.117-.6 4.34-1.871 6.175-2.86-7.304.248-13.902-1.34-15.349-1.764-.247.53-.988 1.553-1.376 1.941z" transform="translate(-65 -6) translate(65 6) translate(9.174)"/>
                            <path fill="url(#sx5ryosfxc)" d="M37.438 1.13s.424.776 1.165 1.764c-4.87 2.294-12.103 5.224-21.278 4.73 0 .952-.07 1.588-.211 1.976 1.2.318 10.409 2.294 23.43-4.376.6.6 1.27 1.129 1.94 1.482L44.813 0l-7.375 1.13z" transform="translate(-65 -6) translate(65 6) translate(9.174)"/>
                            <path fill="url(#77ih95hnvd)" d="M10.656 12.388c-2.928.812-5.504.247-5.504.247-1.588-1.023-2.682.53-2.682.53-2.964.423-2.223 2.33-2.223 2.33l.282.352c.353-1.2 2.753-.635 2.753-.635 1.87.882 3.281 1.553 4.34 2.117 1.517-1.34 2.505-3.035 3.034-4.94z" transform="translate(-65 -6) translate(65 6) translate(9.174)"/>
                            <path fill="url(#t66w4sxk6e)" d="M13.409 17.188l-1.059-.459c.07-.07.141-.176.247-.247 1.094-1.27 2.294-3.353 3.14-6.776-1.87 1.447-3.599 2.153-3.599 2.153-.035 0-.035.035-.07.035-.565 2.259-1.73 4.306-3.494 5.894.389.177.953.424 1.2.565 0 0 1.094.635 1.73.882 1.587.741 4.551 1.553 4.551 1.553 2.117.424 7.445-1.235 7.445-1.235-3.67-.106-9.315-2.082-10.091-2.365z" transform="translate(-65 -6) translate(65 6) translate(9.174)"/>
                        </g>
                        <g fill="#1B75BC" stroke="#1D75BC" stroke-width=".5">
                            <path d="M0.176 0.388L4.94 0.388 4.94 1.341 1.341 1.341 1.341 4.306 4.693 4.306 4.693 5.259 1.341 5.259 1.341 9.282 0.176 9.282z" transform="translate(-65 -6) translate(65 6) translate(27.876 22.941)"/>
                            <path fill-rule="nonzero" d="M6.987 6.494l-.918 2.788h-1.2L7.904.424H9.28l3.035 8.858H11.08l-.953-2.788h-3.14zm2.928-.918l-.882-2.54c-.212-.565-.317-1.095-.459-1.624H8.54c-.141.53-.247 1.059-.459 1.623l-.882 2.577h2.717v-.036h0z" transform="translate(-65 -6) translate(65 6) translate(27.876 22.941)"/>
                            <path d="M13.62.388h1.165v7.906h3.775v.953h-4.94V.388zM25.512 9c-.424.212-1.27.424-2.33.424-2.505 0-4.375-1.589-4.375-4.518 0-2.788 1.87-4.659 4.623-4.659 1.094 0 1.8.247 2.117.388l-.282.918C24.84 1.34 24.206 1.2 23.5 1.2c-2.082 0-3.458 1.341-3.458 3.67 0 2.189 1.235 3.565 3.388 3.565.705 0 1.411-.14 1.87-.353l.212.918z" transform="translate(-65 -6) translate(65 6) translate(27.876 22.941)"/>
                            <path fill-rule="nonzero" d="M34.262 4.73c0 3.035-1.87 4.658-4.128 4.658-2.364 0-3.987-1.835-3.987-4.517 0-2.824 1.729-4.66 4.093-4.66 2.47.036 4.022 1.871 4.022 4.518zm-6.88.14c0 1.906 1.023 3.6 2.858 3.6 1.8 0 2.858-1.658 2.858-3.67 0-1.765-.917-3.635-2.823-3.635-1.94 0-2.893 1.764-2.893 3.706z" transform="translate(-65 -6) translate(65 6) translate(27.876 22.941)"/>
                            <path d="M35.744 9.282V.388h1.27l2.824 4.483c.635 1.023 1.164 1.976 1.587 2.894h.036c-.106-1.2-.141-2.26-.141-3.636V.39h1.093v8.858H41.25L38.426 4.73c-.635-.988-1.2-2.011-1.658-2.964h-.036c.071 1.13.071 2.188.071 3.67v3.777h-1.059v.07h0z" transform="translate(-65 -6) translate(65 6) translate(27.876 22.941)"/>
                        </g>
                        <path fill="#000F47" d="M6.88 31.694c-.423.212-1.34.494-2.505.494C1.73 32.224 0 30.424 0 27.741c0-2.682 1.835-4.659 4.693-4.659.953 0 1.764.247 2.223.46l-.353 1.2c-.388-.213-.988-.424-1.835-.424-2.011 0-3.105 1.517-3.105 3.317 0 2.012 1.306 3.283 3.035 3.283.917 0 1.517-.212 1.94-.424l.283 1.2zM10.515 20.788c0 .53-.388.988-1.023.988-.565 0-.953-.423-.953-.988 0-.53.388-.988.988-.988s.988.424.988.988zM8.751 23.259H10.338999999999999V32.012H8.751zM14.89 21.141v2.118h2.294v1.2h-2.293v4.73c0 1.093.317 1.693 1.2 1.693.423 0 .705-.035.917-.106l.07 1.2c-.317.106-.811.212-1.411.212-.741 0-1.341-.247-1.73-.67-.423-.494-.599-1.27-.599-2.294v-4.765h-1.34v-1.2h1.375v-1.624l1.518-.494zM19.725 23.259l1.905 5.188c.212.565.424 1.27.565 1.8h.035c.176-.53.353-1.2.565-1.835l1.729-5.153h1.693l-2.4 6.247c-1.128 3-1.905 4.518-2.998 5.47-.812.671-1.906.953-2.33 1.024l-.035-1.306c.389-.141.918-.388 1.412-.776.423-.353.953-.953 1.34-1.765.071-.177.142-.282.142-.388 0-.106-.035-.212-.141-.424l-3.211-8.082h1.729z" transform="translate(-65 -6) translate(65 6)"/>
                    </g>
                    <path fill="#424142" fill-rule="nonzero" d="M76 22.05c0 1.286-.992 2.25-2.262 2.25s-2.262-1.004-2.262-2.25.992-2.25 2.262-2.25S76 20.804 76 22.05zm-4.008 0c0 1.004.714 1.768 1.706 1.768.953 0 1.667-.804 1.667-1.768 0-1.004-.714-1.808-1.706-1.808-.913.04-1.667.844-1.667 1.808zm1.389 1.165h-.516v-2.25c.198-.04.476-.08.833-.08.437 0 .596.08.754.16.12.08.199.282.199.483 0 .24-.199.442-.476.522v.04c.198.08.317.241.396.563.08.321.12.482.16.562h-.556c-.08-.08-.12-.281-.16-.562-.039-.241-.158-.362-.475-.362h-.238v.924h.079zm0-1.245h.238c.278 0 .516-.08.516-.322 0-.2-.159-.321-.476-.321-.12 0-.238 0-.278.04v.603z" transform="translate(-65 -6) translate(65 6)"/>
                </g>
            </g>
        </g>
    </g>
</svg>
